{"title":"Krrish-3-2013 Hindi Movie NewDVDSCR --XviD-Mp3--GOPI SAHI","uid":9147919,"size":733477861,"categoryP":"video","categoryS":"movies","magnet":"?xt=urn:btih:3002b2d68aa6530c38b43da1fcc9a7bfd21b048d&amp;dn=Krrish-3-2013+Hindi+Movie+NewDVDSCR+--XviD-Mp3--GOPI+SAHI&amp;tr=udp%3A%2F%2Ftracker.openbittorrent.com%3A80&amp;tr=udp%3A%2F%2Fopen.demonii.com%3A1337&amp;tr=udp%3A%2F%2Ftracker.coppersurfer.tk%3A6969&amp;tr=udp%3A%2F%2Fexodus.desync.com%3A6969","seeders":1,"leechers":0,"uploader":"jatt13","files":2,"time":1383619488,"description":"[img]http://imageshack.us/a/img547/9959/s7j6.jpg[/img]\n[url]http://www.imdb.com/title/tt1029231/[/url]\nVideo\nID                             : 0\nFormat                         : MPEG-4 Visual\nFormat profile                 : Advanced Simple@L5\nFormat settings, BVOP          : Yes\nFormat settings, QPel          : No\nFormat settings, GMC           : No warppoints\nFormat settings, Matrix        : Default (H.263)\nCodec ID                       : XVID\nCodec ID/Hint                  : XviD\nDuration                       : 2h 31mn\nBit rate                       : 559 Kbps\nWidth                          : 640 pixels\nHeight                         : 272 pixels\nDisplay aspect ratio           : 2.35:1\nFrame rate                     : 23.976 fps\nColor space                    : YUV\nChroma subsampling             : 4:2:0\nBit depth                      : 8 bits\nScan type                      : Progressive\nCompression mode               : Lossy\nBits/(Pixel*Frame)             : 0.134\nStream size                    : 606 MiB (87%)\nWriting library                : XviD 1.2.1 (UTC 2008-12-04)\n\nAudio\nID                             : 1\nFormat                         : MPEG Audio\nFormat version                 : Version 1\nFormat profile                 : Layer 3\nMode                           : Joint stereo\nMode extension                 : MS Stereo\nCodec ID                       : 55\nCodec ID/Hint                  : MP3\nDuration                       : 2h 31mn\nBit rate mode                  : Constant\nBit rate                       : 80.0 Kbps\nChannel count                  : 2 channels\nSampling rate                  : 32.0 KHz\nCompression mode               : Lossy\nStream size                    : 86.8 MiB (12%)\nAlignment                      : Aligned on interleaves\nInterleave, duration           : 167 ms (4.00 video frames)\nInterleave, preload duration   : 216 ms\nTitle                          : VTS_01_1 Tc0 L2 2ch 48 128 DELAY 0ms_new\n\n[img]http://imageshack.us/a/img209/1033/rsyj.jpg[/img]\n[img]http://imageshack.us/a/img834/4492/qfh3.png[/img]\n[img]http://imageshack.us/a/img823/7158/k31m.png[/img]\n[img]http://imageshack.us/a/img138/3930/ofpk.png[/img]\n[img]http://imageshack.us/a/img30/4189/qxhj.png[/img]\n[img]http://imageshack.us/a/img34/936/gm5p.png[/img]\n[img]http://imageshack.us/a/img405/3712/23ud.png[/img]\n[img]http://imageshack.us/a/img203/5336/icnv.png[/img]","torrent":{"xt":"urn:btih:3002b2d68aa6530c38b43da1fcc9a7bfd21b048d","amp;dn":"Krrish-3-2013+Hindi+Movie+NewDVDSCR+--XviD-Mp3--GOPI+SAHI","amp;tr":["udp%3A%2F%2Ftracker.openbittorrent.com%3A80","udp%3A%2F%2Fopen.demonii.com%3A1337","udp%3A%2F%2Ftracker.coppersurfer.tk%3A6969","udp%3A%2F%2Fexodus.desync.com%3A6969"],"infoHash":"3002b2d68aa6530c38b43da1fcc9a7bfd21b048d","infoHashBuffer":{"type":"Buffer","data":[48,2,178,214,138,166,83,12,56,180,61,161,252,201,167,191,210,27,4,141]},"announce":[],"urlList":[]}}